<?xml version="1.0" encoding="utf-8"?>
<!-- Generator: Adobe Illustrator 23.1.0, SVG Export Plug-In . SVG Version: 6.00 Build 0)  -->
<svg version="1.1" id="Layer_1" xmlns="http://www.w3.org/2000/svg" xmlns:xlink="http://www.w3.org/1999/xlink" x="0px" y="0px"
	 viewBox="0 0 591.36 127.09" style="enable-background:new 0 0 591.36 127.09;" xml:space="preserve">
<style type="text/css">
	.st0{fill:#092B49;}
	.st1{fill-rule:evenodd;clip-rule:evenodd;fill:#90BF4F;}
	.st2{fill-rule:evenodd;clip-rule:evenodd;fill:#4C8CCA;}
	.st3{fill:#A5A4A4;}
</style>
<g>
	<path class="st0" d="M181.25,79.04c-5.58-1.62-10.07-3.73-13.45-6.32l5.94-13.18c3.24,2.38,7.09,4.29,11.56,5.73
		c4.47,1.44,8.93,2.16,13.4,2.16c4.97,0,8.64-0.74,11.02-2.21c2.38-1.48,3.57-3.44,3.57-5.89c0-1.8-0.7-3.3-2.11-4.48
		c-1.4-1.19-3.21-2.14-5.4-2.86c-2.2-0.72-5.17-1.51-8.91-2.38c-5.76-1.37-10.48-2.74-14.15-4.11c-3.67-1.37-6.83-3.57-9.45-6.59
		c-2.63-3.03-3.94-7.06-3.94-12.1c0-4.39,1.19-8.37,3.57-11.94c2.38-3.57,5.96-6.39,10.75-8.48c4.79-2.09,10.64-3.13,17.56-3.13
		c4.83,0,9.54,0.58,14.16,1.73c4.61,1.15,8.64,2.81,12.1,4.97l-5.4,13.29c-6.99-3.96-13.98-5.94-20.96-5.94
		c-4.9,0-8.52,0.79-10.86,2.38c-2.34,1.59-3.51,3.67-3.51,6.27s1.35,4.52,4.05,5.78c2.7,1.26,6.82,2.5,12.37,3.73
		c5.76,1.37,10.48,2.74,14.16,4.11c3.67,1.37,6.82,3.53,9.45,6.48c2.63,2.95,3.94,6.95,3.94,11.99c0,4.32-1.21,8.27-3.62,11.83
		c-2.41,3.57-6.03,6.39-10.86,8.48c-4.83,2.09-10.7,3.13-17.61,3.13C192.61,81.47,186.83,80.66,181.25,79.04z"/>
	<path class="st0" d="M257.97,76.45c-6.23-3.35-11.13-8-14.7-13.94c-3.57-5.94-5.35-12.66-5.35-20.15c0-7.49,1.78-14.21,5.35-20.15
		c3.57-5.94,8.46-10.59,14.7-13.94c6.23-3.35,13.24-5.02,21.02-5.02c6.55,0,12.48,1.15,17.78,3.46c5.29,2.31,9.74,5.62,13.34,9.94
		l-11.24,10.37c-5.12-5.91-11.45-8.86-19.02-8.86c-4.68,0-8.86,1.03-12.53,3.08s-6.54,4.92-8.59,8.59
		c-2.05,3.67-3.08,7.85-3.08,12.53c0,4.68,1.03,8.86,3.08,12.53c2.05,3.67,4.92,6.54,8.59,8.59s7.85,3.08,12.53,3.08
		c7.56,0,13.9-2.99,19.02-8.97l11.24,10.37c-3.6,4.39-8.07,7.74-13.4,10.05c-5.33,2.3-11.27,3.46-17.83,3.46
		C271.17,81.47,264.2,79.8,257.97,76.45z"/>
	<path class="st0" d="M373.48,27.66c4.43,4.32,6.65,10.73,6.65,19.23v33.28h-16.86V49.49c0-4.61-1.01-8.05-3.03-10.32
		c-2.02-2.27-4.93-3.4-8.75-3.4c-4.25,0-7.64,1.32-10.16,3.94c-2.52,2.63-3.78,6.54-3.78,11.72v28.74h-16.86V0h16.86v28.09
		c2.23-2.23,4.93-3.94,8.1-5.13c3.17-1.19,6.63-1.78,10.37-1.78C363.23,21.18,369.05,23.34,373.48,27.66z"/>
	<path class="st0" d="M452.63,55.86h-43.98c0.79,3.6,2.66,6.45,5.62,8.54c2.95,2.09,6.63,3.13,11.02,3.13
		c3.03,0,5.71-0.45,8.05-1.35c2.34-0.9,4.52-2.32,6.54-4.27l8.97,9.73c-5.48,6.27-13.47,9.4-23.99,9.4c-6.56,0-12.35-1.28-17.4-3.84
		c-5.04-2.56-8.93-6.1-11.67-10.64c-2.74-4.54-4.11-9.69-4.11-15.45c0-5.69,1.35-10.82,4.05-15.4c2.7-4.57,6.41-8.14,11.13-10.7
		c4.72-2.56,9.99-3.84,15.83-3.84c5.69,0,10.84,1.23,15.45,3.67c4.61,2.45,8.23,5.96,10.86,10.54c2.63,4.58,3.94,9.89,3.94,15.94
		C452.95,51.54,452.84,53.05,452.63,55.86z M413.19,37.17c-2.59,2.16-4.18,5.12-4.75,8.86h28.63c-0.58-3.67-2.16-6.61-4.75-8.81
		c-2.59-2.2-5.76-3.3-9.51-3.3C418.98,33.93,415.78,35.01,413.19,37.17z"/>
	<path class="st0" d="M475.59,77.2c-4.94-2.56-8.79-6.1-11.56-10.64c-2.77-4.54-4.16-9.69-4.16-15.45c0-5.76,1.39-10.91,4.16-15.45
		c2.77-4.54,6.63-8.09,11.56-10.64c4.93-2.56,10.5-3.84,16.69-3.84c6.12,0,11.47,1.28,16.05,3.84c4.57,2.56,7.9,6.21,10,10.97
		l-13.08,7.02c-3.03-5.33-7.38-8-13.07-8c-4.39,0-8.03,1.44-10.91,4.32c-2.88,2.88-4.32,6.81-4.32,11.78c0,4.97,1.44,8.9,4.32,11.78
		c2.88,2.88,6.52,4.32,10.91,4.32c5.76,0,10.12-2.66,13.07-8l13.08,7.13c-2.09,4.61-5.42,8.21-10,10.81
		c-4.58,2.59-9.92,3.89-16.05,3.89C486.08,81.04,480.52,79.76,475.59,77.2z"/>
	<path class="st0" d="M552.57,57.38l-8.1,8v14.8h-16.86V0h16.86v45.38l24.64-23.34h20.1L565,46.68l26.37,33.5h-20.42L552.57,57.38z"
		/>
</g>
<g>
	<g>
		<path class="st1" d="M50.33,127.09C60.52,78.8,91.7,37.44,135.3,14.41c0.2,3.26,0,6.72-0.61,9.98
			c9.58-11.21,16.91-19.36,22.21-24.25h-36.68c2.65,1.22,5.09,2.85,7.54,4.48c4.48-0.82,8.97-1.43,13.65-1.63
			c-48.7,15.69-88.64,51.15-109.83,97.6C27.3,85.32,15.28,73.1,0,68.61c11.41,17.52,17.73,37.7,18.14,58.48H50.33z"/>
		<path class="st2" d="M63.17,106.92c-2.45,6.52-4.48,13.24-5.91,20.17h47.27c16.71,0,43.81-19.36,43.81-44.83
			c0-15.89-12.84-28.73-28.53-28.73H95.36c-5.71,6.32-11,13.04-15.69,20.38H108c16.51,0,19.77,33.21-15.28,33.01H63.17z"/>
	</g>
	<path class="st2" d="M35.05,73.91h3.46c4.69-7.13,9.78-13.86,15.28-20.38h-6.93c-16.51,0-19.77-33.21,15.28-33.01h14.67
		c15.69,0,29.14-6.32,37.29-20.38H50.33c-16.71,0-43.81,19.36-43.81,45.03C6.52,60.87,19.36,73.91,35.05,73.91z"/>
</g>
<g>
	<path class="st3" d="M356.67,103.83h8.2c1.96,0,3.69,0.37,5.2,1.12s2.67,1.8,3.51,3.16c0.83,1.36,1.25,2.94,1.25,4.75
		s-0.42,3.39-1.25,4.75c-0.83,1.36-2,2.41-3.51,3.16s-3.24,1.12-5.2,1.12h-8.2V103.83z M364.67,118.45c1.81,0,3.25-0.5,4.32-1.51
		c1.07-1.01,1.61-2.37,1.61-4.09s-0.54-3.08-1.61-4.09c-1.08-1.01-2.52-1.51-4.32-1.51h-3.82v11.2H364.67z"/>
	<path class="st3" d="M391.21,116.08h-10.5c0.19,0.86,0.64,1.54,1.34,2.04c0.71,0.5,1.58,0.75,2.63,0.75c0.72,0,1.36-0.11,1.92-0.32
		c0.56-0.21,1.08-0.55,1.56-1.02l2.14,2.32c-1.31,1.5-3.22,2.24-5.73,2.24c-1.57,0-2.95-0.3-4.15-0.92
		c-1.2-0.61-2.13-1.46-2.79-2.54c-0.65-1.08-0.98-2.31-0.98-3.69c0-1.36,0.32-2.58,0.97-3.68c0.64-1.09,1.53-1.94,2.66-2.55
		c1.13-0.61,2.39-0.92,3.78-0.92c1.36,0,2.59,0.29,3.69,0.88c1.1,0.58,1.96,1.42,2.59,2.52c0.63,1.09,0.94,2.36,0.94,3.8
		C391.29,115.05,391.26,115.41,391.21,116.08z M381.8,111.62c-0.62,0.52-1,1.22-1.13,2.12h6.84c-0.14-0.88-0.52-1.58-1.13-2.1
		c-0.62-0.52-1.38-0.79-2.27-0.79C383.18,110.84,382.42,111.1,381.8,111.62z"/>
	<path class="st3" d="M407.49,108l-5.86,13.88h-4.15L391.65,108h4.15l3.84,9.44l3.97-9.44H407.49z"/>
	<path class="st3" d="M422.27,116.08h-10.5c0.19,0.86,0.64,1.54,1.34,2.04c0.71,0.5,1.58,0.75,2.63,0.75c0.72,0,1.36-0.11,1.92-0.32
		c0.56-0.21,1.08-0.55,1.56-1.02l2.14,2.32c-1.31,1.5-3.22,2.24-5.73,2.24c-1.57,0-2.95-0.3-4.15-0.92
		c-1.2-0.61-2.13-1.46-2.79-2.54c-0.65-1.08-0.98-2.31-0.98-3.69c0-1.36,0.32-2.58,0.97-3.68c0.64-1.09,1.53-1.94,2.66-2.55
		c1.13-0.61,2.39-0.92,3.78-0.92c1.36,0,2.59,0.29,3.69,0.88c1.1,0.58,1.96,1.42,2.59,2.52c0.63,1.09,0.94,2.36,0.94,3.8
		C422.35,115.05,422.32,115.41,422.27,116.08z M412.85,111.62c-0.62,0.52-1,1.22-1.13,2.12h6.84c-0.14-0.88-0.52-1.58-1.13-2.1
		c-0.62-0.52-1.38-0.79-2.27-0.79C414.24,110.84,413.47,111.1,412.85,111.62z"/>
	<path class="st3" d="M425.03,102.74h4.02v19.14h-4.02V102.74z"/>
	<path class="st3" d="M435.47,121.17c-1.16-0.61-2.07-1.46-2.72-2.54c-0.65-1.08-0.98-2.31-0.98-3.69c0-1.38,0.33-2.61,0.98-3.69
		c0.65-1.08,1.56-1.93,2.72-2.54s2.47-0.92,3.93-0.92s2.77,0.31,3.92,0.92s2.06,1.46,2.71,2.54c0.65,1.08,0.98,2.31,0.98,3.69
		c0,1.38-0.33,2.61-0.98,3.69c-0.65,1.08-1.56,1.93-2.71,2.54s-2.46,0.92-3.92,0.92S436.63,121.78,435.47,121.17z M441.94,117.74
		c0.66-0.7,0.99-1.63,0.99-2.8c0-1.17-0.33-2.1-0.99-2.8s-1.51-1.04-2.54-1.04c-1.03,0-1.88,0.35-2.55,1.04s-1.01,1.63-1.01,2.8
		c0,1.17,0.33,2.1,1.01,2.8c0.67,0.7,1.52,1.04,2.55,1.04C440.43,118.79,441.28,118.44,441.94,117.74z"/>
	<path class="st3" d="M461.42,108.69c1.06,0.59,1.89,1.43,2.49,2.5c0.6,1.08,0.9,2.33,0.9,3.75c0,1.43-0.3,2.68-0.9,3.75
		c-0.6,1.07-1.43,1.91-2.49,2.5s-2.23,0.89-3.52,0.89c-1.77,0-3.16-0.56-4.18-1.68v6.48h-4.02V108h3.84v1.6
		c1-1.2,2.45-1.81,4.36-1.81C459.19,107.8,460.36,108.1,461.42,108.69z M459.74,117.74c0.66-0.7,0.99-1.63,0.99-2.8
		c0-1.17-0.33-2.1-0.99-2.8c-0.66-0.7-1.51-1.04-2.54-1.04c-1.03,0-1.88,0.35-2.54,1.04s-0.99,1.63-0.99,2.8
		c0,1.17,0.33,2.1,0.99,2.8c0.66,0.7,1.51,1.04,2.54,1.04C458.23,118.79,459.08,118.44,459.74,117.74z"/>
	<path class="st3" d="M481.01,116.08h-10.5c0.19,0.86,0.64,1.54,1.34,2.04c0.71,0.5,1.58,0.75,2.63,0.75c0.72,0,1.36-0.11,1.92-0.32
		c0.56-0.21,1.08-0.55,1.56-1.02l2.14,2.32c-1.31,1.5-3.22,2.24-5.73,2.24c-1.57,0-2.95-0.3-4.15-0.92
		c-1.2-0.61-2.13-1.46-2.79-2.54c-0.65-1.08-0.98-2.31-0.98-3.69c0-1.36,0.32-2.58,0.97-3.68c0.64-1.09,1.53-1.94,2.66-2.55
		c1.13-0.61,2.39-0.92,3.78-0.92c1.36,0,2.59,0.29,3.69,0.88c1.1,0.58,1.96,1.42,2.59,2.52c0.63,1.09,0.94,2.36,0.94,3.8
		C481.09,115.05,481.06,115.41,481.01,116.08z M471.59,111.62c-0.62,0.52-1,1.22-1.13,2.12h6.84c-0.14-0.88-0.52-1.58-1.13-2.1
		c-0.62-0.52-1.38-0.79-2.27-0.79C472.98,110.84,472.21,111.1,471.59,111.62z"/>
	<path class="st3" d="M489.56,108.31c0.82-0.34,1.76-0.52,2.83-0.52v3.71c-0.45-0.03-0.75-0.05-0.9-0.05
		c-1.15,0-2.05,0.32-2.71,0.97c-0.65,0.64-0.98,1.61-0.98,2.9v6.55h-4.02V108h3.84v1.83C488.09,109.17,488.74,108.66,489.56,108.31z
		"/>
	<path class="st3" d="M513.91,108.69c1.06,0.59,1.89,1.43,2.49,2.5c0.6,1.08,0.9,2.33,0.9,3.75c0,1.43-0.3,2.68-0.9,3.75
		c-0.6,1.07-1.43,1.91-2.49,2.5s-2.23,0.89-3.52,0.89c-1.91,0-3.36-0.6-4.36-1.81v1.6h-3.84v-19.14h4.02v6.73
		c1.01-1.12,2.41-1.68,4.18-1.68C511.68,107.8,512.85,108.1,513.91,108.69z M512.23,117.74c0.66-0.7,0.99-1.63,0.99-2.8
		c0-1.17-0.33-2.1-0.99-2.8c-0.66-0.7-1.51-1.04-2.54-1.04c-1.03,0-1.88,0.35-2.54,1.04s-0.99,1.63-0.99,2.8
		c0,1.17,0.33,2.1,0.99,2.8c0.66,0.7,1.51,1.04,2.54,1.04C510.73,118.79,511.57,118.44,512.23,117.74z"/>
	<path class="st3" d="M533.37,108l-6.27,14.73c-0.64,1.6-1.42,2.73-2.36,3.38c-0.94,0.65-2.07,0.98-3.39,0.98
		c-0.72,0-1.44-0.11-2.14-0.33c-0.71-0.22-1.28-0.53-1.73-0.93l1.47-2.86c0.31,0.28,0.67,0.49,1.07,0.65c0.4,0.15,0.8,0.23,1.2,0.23
		c0.55,0,1-0.13,1.34-0.4c0.34-0.27,0.65-0.71,0.93-1.33l0.05-0.13L517.54,108h4.15l3.89,9.42l3.92-9.42H533.37z"/>
	<path class="st3" d="M554.5,118.01h-8.38l-1.6,3.87h-4.28l8.05-18.06h4.13l8.07,18.06h-4.38L554.5,118.01z M553.19,114.84
		l-2.86-6.91l-2.86,6.91H553.19z"/>
	<path class="st3" d="M565.21,107.23h-5.78v-3.41h15.74v3.41h-5.78v14.65h-4.18V107.23z"/>
	<path class="st3" d="M581.41,107.23h-5.78v-3.41h15.74v3.41h-5.78v14.65h-4.18V107.23z"/>
</g>
</svg>
