<?xml version="1.0" encoding="utf-8"?>
<!-- Generator: Adobe Illustrator 23.1.0, SVG Export Plug-In . SVG Version: 6.00 Build 0)  -->
<svg version="1.1" id="Layer_1" xmlns="http://www.w3.org/2000/svg" xmlns:xlink="http://www.w3.org/1999/xlink" x="0px" y="0px"
	 viewBox="0 0 156.9 126.95" style="enable-background:new 0 0 156.9 126.95;" xml:space="preserve">
<style type="text/css">
	.st0{fill-rule:evenodd;clip-rule:evenodd;fill:#90BF4F;}
	.st1{fill-rule:evenodd;clip-rule:evenodd;fill:#4C8CCA;}
</style>
<g>
	<g>
		<path class="st0" d="M50.33,126.95C60.52,78.65,91.7,37.29,135.3,14.26c0.2,3.26,0,6.72-0.61,9.98
			C144.27,13.04,151.6,4.89,156.9,0h-36.68c2.65,1.22,5.09,2.85,7.54,4.48c4.48-0.82,8.97-1.43,13.65-1.63
			C92.71,18.54,52.78,54,31.58,100.46C27.3,85.17,15.28,72.95,0,68.47c11.41,17.52,17.73,37.7,18.14,58.48H50.33z"/>
		<path class="st1" d="M63.17,106.77c-2.45,6.52-4.48,13.24-5.91,20.17h47.27c16.71,0,43.81-19.36,43.81-44.83
			c0-15.89-12.84-28.73-28.53-28.73H95.36c-5.71,6.32-11,13.04-15.69,20.38H108c16.51,0,19.77,33.21-15.28,33.01H63.17z"/>
	</g>
	<path class="st1" d="M35.05,73.76h3.46c4.69-7.13,9.78-13.86,15.28-20.38h-6.93c-16.51,0-19.77-33.21,15.28-33.01h14.67
		c15.69,0,29.14-6.32,37.29-20.38H50.33C33.62,0,6.52,19.36,6.52,45.03C6.52,60.72,19.36,73.76,35.05,73.76z"/>
</g>
</svg>
